<?xml version="1.0" encoding="utf-8"?>
<!-- Generator: Adobe Illustrator 27.2.0, SVG Export Plug-In . SVG Version: 6.00 Build 0)  -->
<svg version="1.1" xmlns="http://www.w3.org/2000/svg" xmlns:xlink="http://www.w3.org/1999/xlink" x="0px" y="0px"
	 viewBox="0 0 145.2 145.2" style="enable-background:new 0 0 145.2 145.2;" xml:space="preserve">
<style type="text/css">
	.st0{fill:#FFFFFF;}
	.st1{fill:#282828;}
</style>
<g id="Слой_1">
</g>
<g id="Слой_2">
	<g>
		<path class="st1" d="M115.48,89.28c0,3.92-1.56,7.65-4.33,10.42c-2.77,2.77-6.5,4.3-10.42,4.3l-24.28,0.01
			c-0.96,0-1.87,0.24-2.67,0.79c-1.32,0.91-1.73,2.11-2.33,3.53l-1.14,2.71c-0.09,0.21-0.27,0.32-0.45,0.32
			c-0.18,0-0.36-0.1-0.45-0.32l-1.1-2.74c-0.58-1.44-0.95-2.55-2.32-3.51c-0.78-0.54-1.72-0.8-2.67-0.8l-24.28,0
			c-3.92,0-7.65-1.53-10.42-4.3c-2.77-2.77-4.33-6.5-4.33-10.42V0h91.18V89.28L115.48,89.28z M20.83,63.81
			c-1.27,2.27-2.41,4.77-3.34,7.37c-0.92,2.58-1.62,5.26-2.03,7.93c-0.45,2.93-0.59,5.75-0.38,8.25c0.2,2.34,0.71,4.4,1.58,5.99
			c1.23,2.27,2.73,4.27,4.45,6.05c1.73,1.78,3.69,3.35,5.85,4.74c2.14,1.37,4.49,2.58,7.03,3.67c2.54,1.09,5.27,2.07,8.14,2.96
			c1.03,0.32,1.61,1.38,1.3,2.42l-3.77,12.9c-1.04,3.56-5.01,2.28-9.05-0.09c-3.97-2.33-8.02-5.72-9.43-6.62
			c-0.63,0.02-1.21,0.07-1.74,0.15c-2.69,0.43-3.96,1.73-3.18,4.48c0.36,1.25,1.13,2.76,2.35,4.56c1.28,0.65,2.56,1.18,3.82,1.57
			c3.66,1.15,7.28,0.92,11.03,0.28c2.07-0.35,4.12-0.88,6.15-1.57c1.53-0.52,3.06-1.13,4.58-1.82v-1.67c0-1.59,0.91-3.1,2.34-3.81
			c1.79-0.89,3.67-1.58,5.57-2.2c2.74-0.9,5.54-1.56,8.4-2c3.1-0.48,6.24-0.72,9.38-0.72c3.14,0,6.28,0.24,9.38,0.72
			c2.86,0.44,5.66,1.1,8.4,2c1.9,0.62,3.78,1.31,5.57,2.2c1.43,0.71,2.34,2.23,2.34,3.81v1.67c1.52,0.7,3.04,1.31,4.58,1.82
			c2.03,0.68,4.08,1.21,6.15,1.57c3.74,0.64,7.36,0.87,11.03-0.28c1.25-0.39,2.53-0.92,3.82-1.57c1.22-1.8,1.99-3.31,2.35-4.56
			c0.79-2.75-0.48-4.05-3.18-4.48c-0.53-0.08-1.11-0.13-1.74-0.15c-1.41,0.9-5.46,4.29-9.43,6.62c-4.04,2.37-8.01,3.65-9.05,0.09
			l-3.77-12.9c-0.3-1.04,0.27-2.1,1.3-2.42c2.87-0.89,5.6-1.86,8.14-2.96c2.54-1.09,4.89-2.3,7.03-3.67
			c2.17-1.39,4.13-2.95,5.85-4.74c1.72-1.78,3.22-3.78,4.45-6.05c0.87-1.59,1.38-3.65,1.58-5.99c0.21-2.5,0.07-5.32-0.38-8.25
			c-0.41-2.67-1.12-5.36-2.03-7.93c-0.92-2.6-2.07-5.1-3.34-7.37c-0.37-0.66-0.6-1.15-0.37-1.92c0.18-0.59,0.62-1.08,1.25-1.27
			l5.45-1.69c-0.39-1.07-0.9-2.15-1.42-3.28c-1.57-3.35-3.34-7.1-2.9-12.45c0.13-1.64,0.48-3.34,1.13-5.01
			c0.8-2.06,1.79-3.48,3.13-5.17c-0.15,4.57,0.07,6.8,2.2,10.87c0.46,0.88,0.92,1.76,1.32,2.81c0.68-1.5,1.55-2.79,2.59-3.88
			c1.62-1.69,3.21-2.52,5.31-3.39c-0.78,1.79-1.41,3.36-1.47,5.36c-0.06,1.88,0.38,3.33,1.26,4.97c1.64,3.08,4.64,8.69,2.72,11.87
			c-0.57,0.94-1.61,1.71-2.67,2.01l-1.56,0.44c0.34,0.86,0.67,1.74,0.97,2.63c1.16,3.37,2.02,6.86,2.55,10.29
			c0.67,4.36,0.8,8.71,0.31,12.76c-0.46,3.83-1.49,7.39-3.13,10.42c-1.86,3.42-4.07,6.41-6.6,9.05c-0.87,0.91-1.78,1.77-2.72,2.6
			c1.99,0.42,3.87,1.2,5.01,2.98c0.8,1.25,0.58,3.07,0.39,4.47l-2.47,18.69c-0.22,1.7-1.13,3.12-2.69,3.87
			c-2.27,1.09-4.59,1.93-6.93,2.49c-2.33,0.56-4.67,0.86-6.97,0.87c-2.94,0.01-5.82-0.23-8.65-0.71c-2.83-0.48-5.61-1.19-8.35-2.11
			c-2.47-0.83-4.89-1.83-7.27-2.99c-2.51-1.22-4.91-2.58-7.27-4.06l1.38-2.66c-1.78-0.54-3.6-0.95-5.45-1.24
			c-2.36-0.37-4.75-0.56-7.14-0.56c-2.39,0-4.78,0.19-7.14,0.56c-1.85,0.29-3.66,0.7-5.45,1.24l1.38,2.66
			c-2.36,1.48-4.76,2.85-7.27,4.06c-2.38,1.15-4.8,2.15-7.27,2.99c-2.73,0.92-5.52,1.63-8.35,2.11c-2.83,0.48-5.72,0.72-8.65,0.71
			c-2.31-0.01-4.64-0.3-6.97-0.87c-2.34-0.57-4.67-1.4-6.93-2.49c-1.56-0.75-2.47-2.17-2.69-3.87l-2.47-18.69
			c-0.19-1.4-0.41-3.22,0.39-4.47c1.14-1.78,3.02-2.56,5.01-2.98c-0.94-0.83-1.85-1.69-2.72-2.6c-2.53-2.64-4.74-5.63-6.6-9.05
			c-1.65-3.03-2.67-6.59-3.13-10.42C0.53,85.71,0.66,81.35,1.33,77c0.53-3.44,1.39-6.93,2.55-10.29c0.3-0.89,0.63-1.76,0.97-2.63
			l-1.56-0.44c-1.06-0.3-2.1-1.07-2.67-2.01c-1.92-3.18,1.08-8.79,2.72-11.87c0.88-1.64,1.32-3.09,1.26-4.97
			c-0.07-2-0.69-3.57-1.47-5.36c2.1,0.88,3.69,1.71,5.31,3.39c1.04,1.08,1.91,2.37,2.59,3.88c0.4-1.05,0.86-1.93,1.32-2.81
			c2.13-4.07,2.35-6.3,2.2-10.87c1.34,1.69,2.33,3.11,3.13,5.17c0.65,1.68,1,3.38,1.13,5.01c0.43,5.35-1.33,9.1-2.9,12.45
			c-0.53,1.12-1.04,2.2-1.42,3.28l5.45,1.69c0.63,0.19,1.07,0.68,1.25,1.27C21.43,62.66,21.2,63.16,20.83,63.81L20.83,63.81z
			 M69.89,117.31c-3.1,0-6.21,0.24-9.28,0.71c-2.82,0.44-5.58,1.08-8.3,1.98c-1.87,0.61-3.72,1.28-5.48,2.16
			c-0.44,0.22-1.75,1.29-0.84,1.71c0.94,0.44,4.12-0.82,5.87-1.04c0.21-0.04,0.35,0.08,0.43,0.26l4.68,8.98
			c1.85-0.57,3.74-1,5.66-1.3c2.39-0.38,4.82-0.56,7.24-0.56c2.42,0,4.85,0.19,7.24,0.56c1.93,0.3,3.81,0.73,5.66,1.3l4.68-8.98
			c0.09-0.17,0.23-0.29,0.43-0.26c1.75,0.22,4.93,1.48,5.87,1.04c0.91-0.42-0.39-1.49-0.84-1.71c-1.76-0.88-3.61-1.55-5.48-2.16
			c-2.71-0.89-5.48-1.54-8.3-1.98C76.1,117.55,72.99,117.31,69.89,117.31L69.89,117.31z M88.66,138.78
			c2.36,1.14,4.75,2.13,7.19,2.95c2.7,0.91,5.44,1.61,8.24,2.08c2.8,0.47,5.65,0.71,8.54,0.7c2.25-0.01,4.54-0.3,6.81-0.85
			c2.29-0.55,4.58-1.37,6.8-2.44c1.35-0.65,2.12-1.88,2.31-3.35l2.03-15.4c-3.6,3.58-8.2,6.8-13.05,8.32
			c-3.77,1.18-7.49,0.96-11.34,0.3c-2.1-0.36-4.19-0.9-6.25-1.59c-2.1-0.71-4.17-1.58-6.21-2.6c-1.94-0.97-3.86-2.07-5.76-3.29
			l-5.98,11.48C84.17,136.45,86.39,137.69,88.66,138.78L88.66,138.78z M121.56,61.34c-0.73-0.35-1.99-0.26-2.33,0.6
			c-0.22,0.58,0.06,1.03,0.33,1.52c1.32,2.37,2.45,4.87,3.36,7.43c0.93,2.62,1.65,5.34,2.06,8.06c0.46,2.98,0.6,5.85,0.38,8.41
			c-0.21,2.43-0.75,4.58-1.66,6.26c-1.26,2.32-2.79,4.38-4.56,6.2c-1.76,1.82-3.76,3.42-5.97,4.83c-2.17,1.39-4.56,2.62-7.13,3.73
			c-2.56,1.1-5.31,2.08-8.21,2.98c-0.67,0.21-1.05,0.9-0.85,1.58l3.42,11.79c0.25-0.46,0.65-0.84,1.15-1
			c3.43-1.1,6.72-2.28,9.84-3.62c3.11-1.34,6.04-2.83,8.76-4.58c3.08-1.98,5.89-4.23,8.38-6.83c2.49-2.6,4.67-5.54,6.49-8.9
			c1.6-2.95,2.6-6.42,3.05-10.17c0.48-3.99,0.35-8.28-0.31-12.58c-0.52-3.4-1.38-6.84-2.52-10.18c-0.31-0.9-0.64-1.78-0.99-2.66
			l-9.82,2.77c-1.58,0.44-1.62-1.48-1.71-2.55C122.61,63.11,122.51,61.8,121.56,61.34L121.56,61.34z M134.49,44.76
			c0.05-1.37,0.36-2.72,0.86-4.04c-1.33,0.65-2.52,1.5-3.54,2.56c-1.6,1.67-2.34,3.29-3.14,5.39c-0.52-1.67-1.04-2.9-1.86-4.47
			c-1.17-2.23-2.32-4.42-2.33-9.11c-0.75,1.08-1.33,2.21-1.77,3.35c-0.62,1.61-0.96,3.24-1.09,4.82c-0.42,5.18,1.3,8.84,2.84,12.11
			c1.09,2.31,2.08,4.43,2.21,6.77c0.08,1.47-0.64,2.82-1.5,3.97l11.12-3.13c0.9-0.25,1.79-0.91,2.27-1.71
			c1.77-2.92-1.34-8.58-2.74-11.2C134.9,48.33,134.42,46.77,134.49,44.76L134.49,44.76z M51.12,138.78c2.26-1.1,4.49-2.33,6.67-3.69
			l-5.98-11.48c-1.91,1.22-3.83,2.33-5.76,3.29c-2.05,1.02-4.12,1.89-6.21,2.6c-2.06,0.7-4.15,1.23-6.25,1.59
			c-3.85,0.66-7.58,0.88-11.34-0.3c-4.85-1.52-9.45-4.74-13.05-8.32l2.03,15.4c0.19,1.47,0.96,2.7,2.31,3.35
			c2.22,1.07,4.51,1.89,6.8,2.44c2.28,0.55,4.56,0.84,6.81,0.85c2.89,0.01,5.74-0.23,8.54-0.7c2.8-0.47,5.55-1.17,8.24-2.08
			C46.37,140.92,48.76,139.93,51.12,138.78L51.12,138.78z M18.22,61.41c-0.95,0.47-1.05,1.77-1.16,3.07
			c-0.1,1.07-0.14,2.99-1.71,2.55l-9.82-2.77c-0.35,0.88-0.68,1.76-0.99,2.66c-1.14,3.33-2,6.78-2.52,10.18
			c-0.66,4.3-0.79,8.59-0.31,12.58c0.45,3.75,1.45,7.23,3.05,10.18c1.83,3.36,4,6.31,6.49,8.9c2.49,2.6,5.3,4.85,8.38,6.83
			c2.72,1.74,5.65,3.24,8.76,4.58c3.12,1.34,6.41,2.52,9.84,3.62c0.5,0.16,0.89,0.47,1.15,0.93L42.79,113
			c0.2-0.68-0.18-1.37-0.85-1.58c-2.9-0.9-5.65-1.88-8.21-2.98c-2.57-1.1-4.95-2.33-7.13-3.73c-2.21-1.42-4.21-3.01-5.97-4.83
			c-1.77-1.82-3.3-3.88-4.56-6.2c-0.92-1.68-1.45-3.83-1.66-6.26c-0.22-2.56-0.07-5.43,0.38-8.41c0.42-2.72,1.13-5.44,2.06-8.06
			c0.91-2.56,2.03-5.06,3.36-7.43c0.27-0.49,0.55-0.94,0.33-1.52C20.21,61.15,18.94,61.06,18.22,61.41L18.22,61.41z M5.28,44.76
			c0.07,2-0.41,3.56-1.34,5.31c-1.4,2.62-4.51,8.28-2.74,11.2c0.48,0.8,1.38,1.46,2.27,1.71l11.12,3.13
			c-0.86-1.14-1.58-2.49-1.5-3.97c0.13-2.35,1.12-4.46,2.21-6.77c1.54-3.27,3.26-6.93,2.84-12.11c-0.13-1.58-0.47-3.21-1.09-4.82
			c-0.44-1.14-1.02-2.26-1.77-3.35c-0.01,4.69-1.16,6.89-2.33,9.11c-0.82,1.57-1.33,2.8-1.86,4.47c-0.81-2.1-1.54-3.72-3.14-5.39
			c-1.02-1.06-2.21-1.91-3.54-2.56C4.92,42.04,5.24,43.4,5.28,44.76L5.28,44.76z M59.01,127.92h1.99v-7.36h-1.47l-2.14,0.61
			l0.39,1.57l1.23-0.28V127.92L59.01,127.92z M64.82,128.06c0.99,0,1.88-0.33,2.51-1.11c0.65-0.81,0.87-1.89,0.87-2.91
			c0-0.95-0.16-2.04-0.88-2.73c-0.64-0.65-1.34-0.86-2.24-0.86c-0.76,0-1.51,0.21-2.08,0.72c-0.57,0.51-0.83,1.19-0.83,1.94
			c0,0.65,0.21,1.26,0.69,1.71c0.48,0.44,1.12,0.62,1.76,0.62c0.58-0.01,1.12-0.19,1.55-0.6c-0.03,0.31-0.1,0.58-0.21,0.81
			c-0.23,0.48-0.64,0.71-1.16,0.71c-0.61,0-1.09-0.21-1.57-0.58l-0.95,1.4C63.02,127.79,63.86,128.06,64.82,128.06L64.82,128.06z
			 M65.17,124c-0.59,0-1.04-0.35-1.04-0.96c0-0.63,0.42-1,1.02-1c0.59,0,1.04,0.37,1.04,0.99C66.2,123.64,65.75,124,65.17,124
			L65.17,124z M72.43,127.92h1.96v-1.42h0.93v-1.51h-0.93v-4.43h-2.05l-3.79,4.51l0.33,1.43h3.54V127.92L72.43,127.92z
			 M70.68,124.99l1.74-2.1v2.1H70.68L70.68,124.99z M75.95,127.92h5.78v-1.65h-3.02l1.25-0.88c0.45-0.31,0.93-0.68,1.26-1.13
			c0.48-0.66,0.57-1.64,0.24-2.38c-0.44-0.98-1.47-1.39-2.5-1.39c-1.34,0-2.15,0.5-2.98,1.57l1.37,1.14
			c0.19-0.22,0.36-0.4,0.52-0.54c0.27-0.24,0.56-0.4,0.93-0.4c0.28,0,0.56,0.09,0.71,0.34c0.41,0.67-0.35,1.34-0.84,1.71l-2.74,2.09
			V127.92L75.95,127.92z M113.77,1.7H26v87.57c0,7.21,5.84,13.03,13.05,13.03l24.28,0c2.8,0,5.07,1.67,6.11,4.24l0.46,1.13
			l0.47-1.12c1.09-2.59,3.24-4.25,6.09-4.25l24.28,0c7.2,0,13.05-5.82,13.05-13.03V1.7L113.77,1.7z M27.02,30.32v-3.49h13.75
			l3.9,3.9l3.9-3.9h17.42l3.9,3.9l3.9-3.9H91.2l3.9,3.9l3.9-3.9h13.75v3.49H99.56l-4.46,4.46l-4.46-4.46H74.35l-4.46,4.46
			l-4.46-4.46H49.13l-4.46,4.46l-4.46-4.46H27.02L27.02,30.32z M112.75,35.76v53.51c0,6.64-5.38,12.01-12.02,12.01l-24.28,0
			c-2.85,0-5.18,1.45-6.56,3.91c-1.38-2.46-3.72-3.91-6.56-3.91l-24.28,0c-6.64,0-12.02-5.37-12.02-12.01V35.76h13.75l3.9,3.9
			l3.9-3.9h17.42l3.9,3.9l3.9-3.9H91.2l3.9,3.9l3.9-3.9H112.75L112.75,35.76z M47.28,72.13v-1.02c0-0.38,0.43-0.62,0.76-0.35
			c0.64,0.52,1.08,0.79,1.85,1.06v-2.59c0-0.39,0.46-0.6,0.76-0.34c0.61,0.53,1.13,0.81,1.89,1.07v-3.07c0-0.17,0.1-0.31,0.22-0.39
			c0.13-0.08,0.37-0.1,0.54,0.05c0.21,0.19,0.41,0.36,0.65,0.52c0.52-3.5,2.16-6.62,4.54-9.01c2.92-2.92,6.94-4.72,11.39-4.72
			c4.45,0,8.48,1.8,11.39,4.72c2.38,2.38,4.03,5.51,4.54,9.01c0.25-0.16,0.44-0.33,0.65-0.52c0.17-0.15,0.41-0.14,0.54-0.05
			c0.13,0.08,0.22,0.23,0.22,0.39v3.07c0.75-0.26,1.27-0.54,1.89-1.07c0.3-0.26,0.76-0.05,0.76,0.34v2.59
			c0.77-0.27,1.21-0.54,1.85-1.06c0.33-0.27,0.76-0.03,0.76,0.35v1.02l1.53-0.32V67.1l-4.82-0.99c-0.2-1.16-0.51-2.3-0.91-3.41
			l3.67-3.27l-2.36-4.08l-4.66,1.55c-0.75-0.89-1.58-1.73-2.5-2.5L84,49.73l-4.08-2.36l-3.27,3.67c-1.12-0.41-2.26-0.72-3.42-0.92
			l-0.99-4.81h-4.71l-0.99,4.82c-1.16,0.2-2.3,0.51-3.41,0.91l-3.27-3.67l-4.08,2.36l1.55,4.66c-0.89,0.75-1.73,1.58-2.5,2.5
			l-4.67-1.55l-2.36,4.08l3.67,3.27c-0.41,1.12-0.72,2.26-0.92,3.41l-4.81,0.99v4.71L47.28,72.13L47.28,72.13z M84.81,67.58
			c-0.94-7.51-7.34-13.16-14.92-13.16c-7.58,0-13.99,5.65-14.92,13.16c0.47,0.18,0.99,0.32,1.55,0.43c0.72-6.75,6.43-12,13.37-12
			c6.94,0,12.65,5.26,13.37,12C83.82,67.9,84.34,67.76,84.81,67.58L84.81,67.58z M56.43,69.13c-1.05-0.2-1.99-0.5-2.78-0.94v21.62
			c1.79,1.41,5.38,1.51,7.58,1.5c2.95-0.02,6.04,0.58,8.1,2.86V73.12c-1.69-2.96-4.93-3.66-8.09-3.65
			C59.54,69.48,57.88,69.4,56.43,69.13L56.43,69.13z M69.89,95.5c-1.34,0-2.5,0.72-3.13,1.8h6.26C72.39,96.22,71.22,95.5,69.89,95.5
			L69.89,95.5z M67.88,94.33c-1.82-1.54-4.33-1.91-6.64-1.9c-2.86,0.01-6.47-0.09-8.7-2.11V71.13c-0.53-0.16-1.04-0.36-1.53-0.62
			v21.62c1.83,1.25,4.44,1.66,6.61,1.49c2.42-0.19,5.06-0.35,7.35-0.05C66.03,93.7,67.02,93.94,67.88,94.33L67.88,94.33z
			 M66.86,95.12c-0.62-0.21-1.3-0.36-2.04-0.45c-2.17-0.28-4.75-0.12-7.12,0.06c-2.75,0.21-5.58-0.36-7.81-2.04v-19.7
			c-0.51-0.16-1.02-0.36-1.49-0.61V94c2.33,1.64,5.12,1.93,7.89,1.81c1.41-0.06,2.85-0.24,4.25-0.41
			C62.85,95.12,65.02,94.85,66.86,95.12L66.86,95.12z M72.92,95.12c1.84-0.27,4.01,0,6.31,0.28c1.4,0.17,2.85,0.35,4.25,0.41
			c2.77,0.12,5.57-0.17,7.89-1.81V72.38c-0.47,0.25-0.98,0.45-1.49,0.61v19.7c-2.23,1.68-5.06,2.25-7.81,2.04
			c-2.37-0.18-4.95-0.34-7.12-0.06C74.22,94.76,73.53,94.91,72.92,95.12L72.92,95.12z M71.9,94.33c0.86-0.38,1.85-0.62,2.91-0.76
			c2.29-0.3,4.92-0.13,7.35,0.05c2.17,0.17,4.78-0.24,6.61-1.49V70.51c-0.48,0.26-1,0.46-1.53,0.62v19.19
			c-2.23,2.02-5.84,2.12-8.7,2.11C76.23,92.42,73.72,92.79,71.9,94.33L71.9,94.33z M83.35,69.13c-1.45,0.27-3.11,0.36-4.81,0.35
			c-3.16-0.02-6.41,0.69-8.09,3.65v21.06c2.05-2.28,5.15-2.88,8.1-2.86c2.19,0.01,5.79-0.1,7.58-1.5V68.19
			C85.34,68.63,84.4,68.93,83.35,69.13L83.35,69.13z M27.02,21.38V2.72h85.73v18.66H99.56l-4.46,4.46l-4.46-4.46H74.35l-4.46,4.46
			l-4.46-4.46H49.13l-4.46,4.46l-4.46-4.46H27.02L27.02,21.38z"/>
	</g>
</g>
</svg>